HIERARCHY
ROOT Hips
{
	OFFSET 0.00 0.00 0.00
	CHANNELS 6 Xposition Yposition Zposition Xrotation Yrotation Zrotation
	JOINT Spine
	{
		OFFSET 0.00000 1.66264 2.49395
		CHANNELS 3 Xrotation Yrotation Zrotation
		JOINT Spine1
		{
			OFFSET 0.00000 0.57743 3.27475
			CHANNELS 3 Xrotation Yrotation Zrotation
			JOINT Spine2
			{
				OFFSET 0.00000 0.28982 3.31262
				CHANNELS 3 Xrotation Yrotation Zrotation
				JOINT Spine3
				{
					OFFSET 0.00000 0.00000 3.32527
					CHANNELS 3 Xrotation Yrotation Zrotation
					JOINT Neck
					{
						OFFSET 0.00000 -1.24697 8.72884
						CHANNELS 3 Xrotation Yrotation Zrotation
						JOINT Head
						{
							OFFSET 0.00000 -0.79396 4.50279
							CHANNELS 3 Xrotation Yrotation Zrotation
							End Site
							{
								OFFSET 0.00000 0.00001 5.38279
							}
						}
					}
					JOINT RightShoulder
					{
						OFFSET -1.14808 -1.91346 6.19963
						CHANNELS 3 Xrotation Yrotation Zrotation
						JOINT RightArm
						{
							OFFSET -5.70212 0.00000 0.00000
							CHANNELS 3 Xrotation Yrotation Zrotation
							JOINT RightForeArm
							{
								OFFSET -10.82477 0.00000 0.00000
								CHANNELS 3 Xrotation Yrotation Zrotation
								JOINT RightHand
								{
									OFFSET -10.02856 0.00000 0.00000
									CHANNELS 3 Xrotation Yrotation Zrotation
									JOINT RightHandEnd
									{
										OFFSET -2.68345 0.00000 0.00000
										CHANNELS 3 Xrotation Yrotation Zrotation
										End Site
										{
											OFFSET -2.68345 0.00000 0.00000
										}
									}
									JOINT RightHandThumb1
									{
										OFFSET -1.07338 -1.78897 -0.71559
										CHANNELS 3 Yrotation Xrotation Zrotation
										End Site
										{
											OFFSET -2.59202 -0.69453 0.00000
										}
									}
								}
							}
						}
					}
					JOINT LeftShoulder
					{
						OFFSET 1.14808 -1.91346 6.19963
						CHANNELS 3 Xrotation Yrotation Zrotation
						JOINT LeftArm
						{
							OFFSET 5.70212 0.00000 0.00000
							CHANNELS 3 Xrotation Yrotation Zrotation
							JOINT LeftForeArm
							{
								OFFSET 10.82477 0.00000 0.00000
								CHANNELS 3 Xrotation Yrotation Zrotation
								JOINT LeftHand
								{
									OFFSET 10.02856 0.00000 0.00000
									CHANNELS 3 Xrotation Yrotation Zrotation
									JOINT LeftHandEnd
									{
										OFFSET 2.68345 0.00000 0.00000
										CHANNELS 3 Xrotation Yrotation Zrotation
										End Site
										{
											OFFSET 2.68345 0.00000 0.00000
										}
									}
									JOINT LeftHandThumb1
									{
										OFFSET 1.07338 -1.78897 -0.71559
										CHANNELS 3 Yrotation Xrotation Zrotation
										End Site
										{
											OFFSET 2.59202 -0.69453 0.00000
										}
									}
								}
							}
						}
					}
				}
			}
		}
	}
	JOINT RightUpLeg
	{
		OFFSET -3.40597 0.00000 -0.99500
		CHANNELS 3 Xrotation Yrotation Zrotation
		JOINT RightLeg
		{
			OFFSET 0.00001 0.00000 -17.05191
			CHANNELS 3 Xrotation Yrotation Zrotation
			JOINT RightFoot
			{
				OFFSET 0.00001 0.00000 -15.93260
				CHANNELS 3 Xrotation Yrotation Zrotation
				JOINT RightToeBase
				{
					OFFSET 0.00000 -4.98016 -1.81263
					CHANNELS 3 Xrotation Yrotation Zrotation
					End Site
					{
						OFFSET 0.00000 -2.75539 -0.00000
					}
				}
			}
		}
	}
	JOINT LeftUpLeg
	{
		OFFSET 3.40597 0.00000 -0.99500
		CHANNELS 3 Xrotation Yrotation Zrotation
		JOINT LeftLeg
		{
			OFFSET 0.00001 0.00000 -17.05191
			CHANNELS 3 Xrotation Yrotation Zrotation
			JOINT LeftFoot
			{
				OFFSET 0.00001 0.00000 -15.93260
				CHANNELS 3 Xrotation Yrotation Zrotation
				JOINT LeftToeBase
				{
					OFFSET 0.00000 -4.98016 -1.81263
					CHANNELS 3 Xrotation Yrotation Zrotation
					End Site
					{
						OFFSET 0.00000 -2.75539 -0.00000
					}
				}
			}
		}
	}
}
MOTION
Frames: 7
Frame Time: 0.008342
 9.8404 43.8837 35.0836 -0.9688 -2.9028 -1.1580 1.8453 3.7854 -0.8017 1.1761 0.4804 -0.0150 2.8182 0.4623 -0.1530 0.7559 -0.1949 0.1386 -4.4879 -1.7553 4.6142 -5.1236 6.2292 9.0872 6.4912 -11.2806 0.8387 45.8834 -39.8278 48.8802 0.0000 0.0000 28.1507 -7.3692 20.2392 -0.2011 0.0000 0.0000 -0.0000 0.0000 0.0000 0.0000 12.4513 8.0112 -5.5551 49.9095 23.7817 -55.3123 -0.0000 -0.0000 -28.0379 -17.6311 -14.1534 -3.7716 0.0000 0.0000 0.0000 -0.0000 0.0000 0.0000 -23.3172 7.2692 -12.3018 43.8832 0.0000 0.0000 -6.7848 8.3045 -26.7617 -14.4441 0.0000 -0.0000 5.1346 4.7601 24.8603 7.1373 0.0000 0.0000 -14.4633 5.1222 16.6285 0.6854 0.0000 0.0000
 9.8700 43.6664 35.0598 -1.0695 -2.9245 -1.1863 1.9020 3.8385 -0.8349 1.2231 0.4987 -0.0232 2.8195 0.3991 -0.2286 0.7591 -0.1945 0.1309 -4.5045 -1.7538 4.6332 -5.1652 6.2480 9.1450 6.5560 -11.2439 0.8157 46.0406 -39.7935 48.9869 0.0000 0.0000 28.0154 -7.2969 20.1715 -0.2269 0.0000 -0.0000 0.0000 0.0000 0.0000 -0.0000 12.3006 8.0619 -5.6279 49.5131 23.8946 -55.1600 -0.0000 -0.0000 -28.5947 -17.4907 -14.3824 -3.7865 0.0000 -0.0000 -0.0000 -0.0000 0.0000 0.0000 -23.6834 7.2165 -12.5059 42.4416 0.0000 0.0000 -6.7614 7.9964 -26.2474 -14.4934 0.0000 -0.0000 5.8358 4.9118 25.2541 6.6732 0.0000 0.0000 -14.5577 5.4179 16.2604 0.6566 0.0000 0.0000
 9.8990 43.4459 35.0335 -1.1673 -2.9560 -1.2125 1.9548 3.8983 -0.8691 1.2675 0.5171 -0.0321 2.8236 0.3308 -0.3075 0.7659 -0.1965 0.1231 -4.5243 -1.7456 4.6588 -5.2124 6.2661 9.2046 6.6164 -11.2060 0.7997 46.2322 -39.7071 49.1022 0.0000 0.0000 27.8736 -7.2212 20.0953 -0.2520 0.0000 -0.0000 -0.0000 0.0000 -0.0000 0.0000 12.1512 8.1156 -5.6968 49.1099 24.0125 -55.0031 -0.0000 -0.0000 -29.1532 -17.3088 -14.6139 -3.7790 0.0000 0.0000 -0.0000 -0.0000 0.0000 -0.0000 -24.0119 7.1684 -12.7107 40.9250 0.0000 0.0000 -6.7240 7.6048 -25.5813 -14.5551 0.0000 -0.0000 6.5219 5.0699 25.6169 6.2435 0.0000 0.0000 -14.6635 5.7159 15.9222 0.6017 0.0000 0.0000
 9.9270 43.2221 35.0046 -1.2639 -2.9959 -1.2347 2.0089 3.9629 -0.9029 1.3070 0.5363 -0.0419 2.8297 0.2587 -0.3920 0.7723 -0.1998 0.1161 -4.5406 -1.7352 4.6875 -5.2667 6.2843 9.2676 6.6739 -11.1688 0.7848 46.4588 -39.5712 49.2325 0.0000 0.0000 27.7158 -7.1437 20.0171 -0.2632 0.0000 0.0000 0.0000 0.0000 0.0000 -0.0000 12.0113 8.1684 -5.7649 48.7002 24.1291 -54.8443 -0.0000 -0.0000 -29.7093 -17.1030 -14.8493 -3.7623 -0.0000 0.0000 -0.0000 0.0000 -0.0000 0.0000 -24.2996 7.1227 -12.9212 39.3382 0.0000 0.0000 -6.6555 7.1637 -24.7834 -14.6351 0.0000 -0.0000 7.1948 5.2314 25.9491 5.8499 0.0000 0.0000 -14.7794 6.0127 15.6157 0.5168 0.0000 0.0000
 9.9540 42.9953 34.9732 -1.3516 -3.0454 -1.2487 2.0551 4.0322 -0.9382 1.3468 0.5567 -0.0513 2.8332 0.1848 -0.4832 0.7794 -0.2044 0.1089 -4.5548 -1.7249 4.7187 -5.3256 6.3016 9.3341 6.7256 -11.1351 0.7679 46.7109 -39.3983 49.3685 0.0000 0.0000 27.5494 -7.0524 19.9319 -0.2726 0.0000 -0.0000 0.0000 0.0000 -0.0000 -0.0000 11.8779 8.2185 -5.8283 48.2882 24.2408 -54.6866 -0.0000 -0.0000 -30.2622 -16.8812 -15.0845 -3.7380 -0.0000 0.0000 0.0000 -0.0000 -0.0000 0.0000 -24.5572 7.0817 -13.1429 37.6901 0.0000 0.0000 -6.5422 6.7073 -23.8701 -14.7408 0.0000 -0.0000 7.8435 5.3950 26.2383 5.4984 0.0000 0.0000 -14.9069 6.3021 15.3521 0.4016 0.0000 0.0000
 9.9801 42.7658 34.9392 -1.4239 -3.1073 -1.2534 2.0946 4.1069 -0.9738 1.3780 0.5765 -0.0635 2.8352 0.1134 -0.5770 0.7854 -0.2094 0.1013 -4.5646 -1.7169 4.7492 -5.3863 6.3179 9.4035 6.7752 -11.1058 0.7463 46.9815 -39.1967 49.5100 0.0000 0.0000 27.3707 -6.9442 19.8485 -0.2781 0.0000 -0.0000 -0.0000 -0.0000 -0.0000 -0.0000 11.7537 8.2626 -5.8905 47.8780 24.3434 -54.5343 -0.0000 -0.0000 -30.8045 -16.6667 -15.3194 -3.7251 -0.0000 -0.0000 -0.0000 0.0000 0.0000 -0.0000 -24.7974 7.0493 -13.3773 35.9938 0.0000 0.0000 -6.3763 6.2651 -22.8536 -14.8784 0.0000 -0.0000 8.4606 5.5633 26.4758 5.1891 0.0000 0.0000 -15.0457 6.5789 15.1398 0.2598 0.0000 0.0000
 10.0045 42.5333 34.9031 -1.4879 -3.1711 -1.2448 2.1287 4.1786 -1.0121 1.4152 0.5944 -0.0697 2.8261 0.0430 -0.6781 0.7912 -0.2124 0.0904 -4.5714 -1.7133 4.7742 -5.4454 6.3321 9.4788 6.8211 -11.0835 0.7168 47.2580 -38.9847 49.6463 0.0000 0.0000 27.1848 -6.8103 19.7610 -0.2831 0.0000 0.0000 -0.0000 0.0000 0.0000 -0.0000 11.6398 8.2988 -5.9510 47.4695 24.4359 -54.3888 -0.0000 -0.0000 -31.3356 -16.4644 -15.5509 -3.7230 0.0000 -0.0000 -0.0000 0.0000 0.0000 -0.0000 -25.0113 7.0159 -13.6329 34.2539 0.0000 0.0000 -6.1534 5.8565 -21.7466 -15.0489 0.0000 -0.0000 9.0552 5.7227 26.6608 4.9218 0.0000 0.0000 -15.1966 6.8423 14.9762 0.0970 0.0000 0.0000
